<?xml version="1.0" encoding="utf-8"?>
<svg viewBox="0 0 636.1 140.4" style="enable-background:new 0 0 636.1 140.4;" xmlns="http://www.w3.org/2000/svg">
  <defs>
    <linearGradient id="editing-gradient-gradient" x1="0" x2="1" y1="0.5" y2="0.5" gradientUnits="objectBoundingBox">
      <stop offset="0" stop-color="#f0f"/>
      <stop offset="1" stop-color="#0ff"/>
    </linearGradient>
    <style type="text/css">
	.st0{fill:url(#SVGID_1_);}
	.st1{fill:url(#SVGID_2_);}
	.st2{fill:url(#SVGID_3_);}
	.st3{fill:url(#SVGID_4_);}
	.st4{fill:url(#SVGID_5_);}
	.st5{fill:url(#SVGID_6_);}
	.st6{fill:url(#SVGID_7_);}
	.st7{fill:url(#SVGID_8_);}
	.st8{fill:url(#SVGID_9_);}
</style>
  </defs>
  <g>
    <g>
      <linearGradient id="SVGID_7_" gradientUnits="userSpaceOnUse" x1="-14.647" y1="33.7483" x2="656.5567" y2="33.7483">
        <stop offset="0.0015" style="stop-color:#DA8CFF"/>
        <stop offset="1" style="stop-color:#9A55FF"/>
      </linearGradient>
      <path class="st6" d="M100.2,30L53.1,6.5c-1.2-0.6-2.5-0.6-3.7,0L2.3,30C0.9,30.7,0,32.2,0,33.7c0,1.6,0.9,3,2.3,3.7L49.4,61 c0.6,0.3,1.2,0.4,1.9,0.4c0.6,0,1.3-0.1,1.9-0.4l47.1-23.5c1.4-0.7,2.3-2.1,2.3-3.7C102.5,32.2,101.6,30.7,100.2,30z M51.2,52.7 L13.4,33.7l37.8-18.9l37.8,18.9L51.2,52.7z"/>
    </g>
  </g>
  <g>
    <g>
      <linearGradient id="SVGID_8_" gradientUnits="userSpaceOnUse" x1="-14.647" y1="92.6076" x2="656.5567" y2="92.6076">
        <stop offset="0.0015" style="stop-color:#DA8CFF"/>
        <stop offset="1" style="stop-color:#9A55FF"/>
      </linearGradient>
      <path class="st7" d="M102,79c-1-2-3.5-2.9-5.6-1.9L51.2,99.8L6,77.1c-2-1-4.5-0.2-5.6,1.9c-1,2-0.2,4.5,1.9,5.6l47.1,23.5 c0.6,0.3,1.2,0.4,1.9,0.4c0.6,0,1.3-0.1,1.9-0.4l47.1-23.5C102.2,83.5,103,81,102,79z"/>
    </g>
  </g>
  <g>
    <g>
      <linearGradient id="SVGID_9_" gradientUnits="userSpaceOnUse" x1="-14.647" y1="69.0637" x2="656.5567" y2="69.0637">
        <stop offset="0.0015" style="stop-color:#DA8CFF"/>
        <stop offset="1" style="stop-color:#9A55FF"/>
      </linearGradient>
      <path class="st8" d="M102,55.4c-1-2-3.5-2.9-5.6-1.9L51.2,76.2L6,53.6c-2-1-4.5-0.2-5.6,1.9c-1,2-0.2,4.5,1.9,5.6l47.1,23.5 c0.6,0.3,1.2,0.4,1.9,0.4c0.6,0,1.3-0.1,1.9-0.4L100.2,61C102.2,60,103,57.5,102,55.4z"/>
    </g>
  </g>
  <g transform="matrix(1.020605, 0, 0, 1.249706, 79.2846, -37.297165)" style="">
    <g transform="translate(109.32525873184204, 98.68000030517578)">
      <path d="M2.69-39.68L2.69-39.68L2.69-39.68Q3.58-41.47 5.54-42.46L5.54-42.46L5.54-42.46Q7.49-43.46 10.18-43.46L10.18-43.46L10.18-43.46Q14.40-43.46 16.93-40.42L16.93-40.42L16.93-40.42Q19.46-37.38 19.46-30.72L19.46-30.72L19.46-7.87L34.11-42.18L41.66-42.18L43.39-9.79L43.20-7.94L58.43-42.18L67.20-42.18L46.72 0L33.09 0L31.81-19.46L23.36 0L7.94 0L6.02-30.72L6.02-30.72Q5.82-34.18 4.90-36.45L4.90-36.45L4.90-36.45Q3.97-38.72 2.69-39.68ZM89.28-10.82L89.28-10.82L89.28-10.82Q90.88-9.73 90.88-7.33L90.88-7.33L90.88-7.33Q90.88-4.93 89.66-3.39L89.66-3.39L89.66-3.39Q88.45-1.86 86.46-0.83L86.46-0.83L86.46-0.83Q82.37 1.28 77.95 1.28L77.95 1.28L77.95 1.28Q73.54 1.28 70.94 0.32L70.94 0.32L70.94 0.32Q68.35-0.64 66.62-2.43L66.62-2.43L66.62-2.43Q63.23-5.82 63.23-12.03L63.23-12.03L63.23-12.03Q63.23-21.70 68.48-27.58L68.48-27.58L68.48-27.58Q74.11-33.92 83.90-33.92L83.90-33.92L83.90-33.92Q89.98-33.92 92.99-31.36L92.99-31.36L92.99-31.36Q95.23-29.44 95.23-26.30L95.23-26.30L95.23-26.30Q95.23-15.04 75.78-15.04L75.78-15.04L75.78-15.04Q75.52-13.38 75.52-11.97L75.52-11.97L75.52-11.97Q75.52-9.02 76.83-7.90L76.83-7.90L76.83-7.90Q78.14-6.78 80.58-6.78L80.58-6.78L80.58-6.78Q83.01-6.78 85.60-7.90L85.60-7.90L85.60-7.90Q88.19-9.02 89.28-10.82ZM76.22-17.79L76.22-17.79L76.22-17.79Q80.77-17.79 83.39-20.61L83.39-20.61L83.39-20.61Q86.02-23.30 86.02-27.58L86.02-27.58L86.02-27.58Q86.02-29.06 85.47-29.86L85.47-29.86L85.47-29.86Q84.93-30.66 83.84-30.66L83.84-30.66L83.84-30.66Q82.75-30.66 81.82-30.24L81.82-30.24L81.82-30.24Q80.90-29.82 79.94-28.42L79.94-28.42L79.94-28.42Q77.57-25.22 76.22-17.79ZM96.58-3.07L96.58-3.07L104.51-44.80L117.50-46.08L115.52-36.29L115.52-36.29Q114.82-33.28 113.92-31.17L113.92-31.17L113.92-31.17Q115.33-32.96 118.40-33.66L118.40-33.66L118.40-33.66Q119.30-33.92 120.38-33.92L120.38-33.92L120.38-33.92Q126.34-33.92 129.60-30.30L129.60-30.30L129.60-30.30Q132.86-26.69 132.86-19.71L132.86-19.71L132.86-19.71Q132.86-10.62 127.68-4.93L127.68-4.93L127.68-4.93Q122.11 1.28 112 1.28L112 1.28L112 1.28Q105.02 1.28 99.78-1.02L99.78-1.02L99.78-1.02Q97.92-1.86 96.58-3.07ZM112.83-22.40L109.44-3.65L109.44-3.65Q110.78-2.50 112.45-2.50L112.45-2.50L112.45-2.50Q114.11-2.50 115.07-3.14L115.07-3.14L115.07-3.14Q116.03-3.78 116.74-5.06L116.74-5.06L116.74-5.06Q118.66-8.51 120.19-19.07L120.19-19.07L120.19-19.07Q120.64-22.08 120.64-25.09L120.64-25.09L120.64-25.09Q120.64-28.10 119.97-29.06L119.97-29.06L119.97-29.06Q119.30-30.02 118.02-30.02L118.02-30.02L118.02-30.02Q114.11-30.02 112.83-22.40L112.83-22.40ZM170.11-13.25L170.11-13.25L170.11-13.25Q171.78-12.03 171.78-9.44L171.78-9.44L171.78-9.44Q171.78-6.85 170.66-5.02L170.66-5.02L170.66-5.02Q169.54-3.20 167.36-1.79L167.36-1.79L167.36-1.79Q162.69 1.22 154.53 1.22L154.53 1.22L154.53 1.22Q146.37 1.22 141.92-3.04L141.92-3.04L141.92-3.04Q137.47-7.30 137.47-14.85L137.47-14.85L137.47-14.85Q137.47-25.54 143.04-33.66L143.04-33.66L143.04-33.66Q147.26-39.68 154.82-42.24L154.82-42.24L154.82-42.24Q158.72-43.52 162.56-43.52L162.56-43.52L162.56-43.52Q166.40-43.52 168.77-43.01L168.77-43.01L168.77-43.01Q171.14-42.50 172.93-41.47L172.93-41.47L172.93-41.47Q176.83-39.23 176.83-35.65L176.83-35.65L176.83-35.65Q176.83-32.38 173.76-29.95L173.76-29.95L173.76-29.95Q170.94-27.78 168.64-27.78L168.64-27.78L168.64-27.78Q166.34-27.78 165.38-28.10L165.38-28.10L165.38-28.10Q165.63-30.40 165.63-31.90L165.63-31.90L165.63-31.90Q165.63-33.41 165.57-34.50L165.57-34.50L165.57-34.50Q165.50-35.58 165.18-36.61L165.18-36.61L165.18-36.61Q164.54-38.98 162.59-38.98L162.59-38.98L162.59-38.98Q160.64-38.98 158.69-37.15L158.69-37.15L158.69-37.15Q156.74-35.33 155.07-32.26L155.07-32.26L155.07-32.26Q151.30-25.28 151.30-17.02L151.30-17.02L151.30-17.02Q151.30-13.06 153.54-10.78L153.54-10.78L153.54-10.78Q155.78-8.51 160.58-8.51L160.58-8.51L160.58-8.51Q164.16-8.51 167.55-10.88L167.55-10.88L167.55-10.88Q169.02-11.90 170.11-13.25ZM209.28-7.10L209.28-7.10L209.28-7.10Q209.28-4.29 212.16-3.46L212.16-3.46L212.16-3.46Q211.46-1.09 208.70 0.19L208.70 0.19L208.70 0.19Q206.40 1.28 203.87 1.28L203.87 1.28L203.87 1.28Q201.34 1.28 200.03 0.61L200.03 0.61L200.03 0.61Q198.72-0.06 198.02-1.15L198.02-1.15L198.02-1.15Q196.86-2.82 196.86-5.95L196.86-5.95L196.86-5.95Q196.86-7.81 197.89-12.93L197.89-12.93L198.78-17.79L198.78-17.79Q199.87-23.36 199.87-25.41L199.87-25.41L199.87-25.41Q199.87-28.99 197.89-28.99L197.89-28.99L197.89-28.99Q195.39-28.99 193.79-25.34L193.79-25.34L193.79-25.34Q193.15-23.94 192.70-21.82L192.70-21.82L188.35 0L175.49 1.28L184.51-44.80L197.38-46.08L196.86-43.52L196.86-43.52Q195.07-33.66 193.54-30.34L193.54-30.34L193.54-30.34Q197.12-33.92 203.71-33.92L203.71-33.92L203.71-33.92Q210.69-33.92 211.97-29.31L211.97-29.31L211.97-29.31Q212.42-27.84 212.42-26.56L212.42-26.56L212.42-26.56Q212.42-25.28 212.32-24.29L212.32-24.29L212.32-24.29Q212.22-23.30 211.90-21.50L211.90-21.50L211.07-16.90L209.60-9.66L209.60-9.66Q209.28-8.19 209.28-7.10ZM220.13-1.92L220.13-1.92L220.13-1.92Q218.62-3.58 217.95-6.21L217.95-6.21L217.95-6.21Q217.28-8.83 217.28-13.12L217.28-13.12L217.28-13.12Q217.28-17.41 218.75-21.31L218.75-21.31L218.75-21.31Q220.22-25.22 222.91-28.03L222.91-28.03L222.91-28.03Q228.42-33.92 237.50-33.92L237.50-33.92L237.50-33.92Q240.77-33.92 243.14-32.83L243.14-32.83L254.08-33.92L249.34-8.96L249.34-8.96Q249.15-8.19 249.15-6.78L249.15-6.78L249.15-6.78Q249.15-5.38 250.02-4.48L250.02-4.48L250.02-4.48Q250.88-3.58 252.16-3.46L252.16-3.46L252.16-3.46Q251.52-1.28 249.18 0L249.18 0L249.18 0Q246.85 1.28 244.22 1.28L244.22 1.28L244.22 1.28Q241.60 1.28 239.84 0.29L239.84 0.29L239.84 0.29Q238.08-0.70 237.57-2.37L237.57-2.37L237.57-2.37Q236.54-0.77 234.37 0.26L234.37 0.26L234.37 0.26Q232.19 1.28 229.28 1.28L229.28 1.28L229.28 1.28Q226.37 1.28 224 0.51L224 0.51L224 0.51Q221.63-0.26 220.13-1.92ZM233.63-27.90L233.63-27.90L233.63-27.90Q232.90-26.75 232.26-24.80L232.26-24.80L232.26-24.80Q231.62-22.85 230.56-17.63L230.56-17.63L230.56-17.63Q229.50-12.42 229.50-8.70L229.50-8.70L229.50-8.70Q229.50-4.99 230.08-3.90L230.08-3.90L230.08-3.90Q230.66-2.82 231.68-2.82L231.68-2.82L231.68-2.82Q233.73-2.82 235.23-4.77L235.23-4.77L235.23-4.77Q236.74-6.72 237.31-10.18L237.31-10.18L240.70-28.93L240.70-28.93Q239.36-30.08 237.79-30.08L237.79-30.08L237.79-30.08Q236.22-30.08 235.30-29.57L235.30-29.57L235.30-29.57Q234.37-29.06 233.63-27.90ZM258.56-6.40L258.56-6.40L258.56-6.40Q258.56-8.13 259.46-12.48L259.46-12.48L262.85-29.76L259.07-29.76L259.33-31.68L259.33-31.68Q267.01-33.98 274.43-39.62L274.43-39.62L277.50-39.62L275.97-32.64L280.96-32.64L280.38-29.76L275.46-29.76L272.19-12.48L272.19-12.48Q271.36-8.51 271.36-7.17L271.36-7.17L271.36-7.17Q271.36-4.10 274.05-3.46L274.05-3.46L274.05-3.46Q273.41-1.28 271.10 0L271.10 0L271.10 0Q268.80 1.28 265.54 1.28L265.54 1.28L265.54 1.28Q262.27 1.28 260.42-0.77L260.42-0.77L260.42-0.77Q258.56-2.82 258.56-6.40Z" fill="url(#editing-gradient-gradient)"/>
    </g>
  </g>
</svg>